<svg width="90" height="100" viewBox="0 0 90 100" fill="none" xmlns="http://www.w3.org/2000/svg">
<g opacity="0.3">
<mask id="mask0_1_11" style="mask-type:alpha" maskUnits="userSpaceOnUse" x="4" y="22" width="8" height="8">
<path d="M7.90962 29.9773C10.0689 29.9773 11.8193 28.1915 11.8193 25.9886C11.8193 23.7858 10.0689 22 7.90962 22C5.7504 22 4 23.7858 4 25.9886C4 28.1915 5.7504 29.9773 7.90962 29.9773Z" fill="url(#paint0_linear_1_11)"/>
</mask>
<g mask="url(#mask0_1_11)">
<path d="M7.90962 29.9773C10.0689 29.9773 11.8193 28.1915 11.8193 25.9886C11.8193 23.7858 10.0689 22 7.90962 22C5.7504 22 4 23.7858 4 25.9886C4 28.1915 5.7504 29.9773 7.90962 29.9773Z" fill="url(#paint1_linear_1_11)"/>
</g>
<mask id="mask1_1_11" style="mask-type:alpha" maskUnits="userSpaceOnUse" x="26" y="22" width="9" height="8">
<path d="M30.5525 29.9773C32.7117 29.9773 34.4621 28.1915 34.4621 25.9886C34.4621 23.7858 32.7117 22 30.5525 22C28.3932 22 26.6428 23.7858 26.6428 25.9886C26.6428 28.1915 28.3932 29.9773 30.5525 29.9773Z" fill="url(#paint2_linear_1_11)"/>
</mask>
<g mask="url(#mask1_1_11)">
<path d="M30.5528 29.9773C32.712 29.9773 34.4625 28.1915 34.4625 25.9886C34.4625 23.7858 32.712 22 30.5528 22C28.3936 22 26.6432 23.7858 26.6432 25.9886C26.6432 28.1915 28.3936 29.9773 30.5528 29.9773Z" fill="url(#paint3_linear_1_11)"/>
</g>
<mask id="mask2_1_11" style="mask-type:alpha" maskUnits="userSpaceOnUse" x="49" y="22" width="9" height="8">
<path d="M53.1953 29.9773C55.3546 29.9773 57.105 28.1915 57.105 25.9886C57.105 23.7858 55.3546 22 53.1953 22C51.0361 22 49.2857 23.7858 49.2857 25.9886C49.2857 28.1915 51.0361 29.9773 53.1953 29.9773Z" fill="url(#paint4_linear_1_11)"/>
</mask>
<g mask="url(#mask2_1_11)">
<path d="M53.196 29.9773C55.3552 29.9773 57.1056 28.1915 57.1056 25.9886C57.1056 23.7858 55.3552 22 53.196 22C51.0368 22 49.2864 23.7858 49.2864 25.9886C49.2864 28.1915 51.0368 29.9773 53.196 29.9773Z" fill="url(#paint5_linear_1_11)"/>
</g>
<mask id="mask3_1_11" style="mask-type:alpha" maskUnits="userSpaceOnUse" x="71" y="22" width="9" height="8">
<path d="M75.8381 29.9773C77.9973 29.9773 79.7477 28.1915 79.7477 25.9886C79.7477 23.7858 77.9973 22 75.8381 22C73.6789 22 71.9285 23.7858 71.9285 25.9886C71.9285 28.1915 73.6789 29.9773 75.8381 29.9773Z" fill="url(#paint6_linear_1_11)"/>
</mask>
<g mask="url(#mask3_1_11)">
<path d="M75.8387 29.9773C77.9979 29.9773 79.7483 28.1915 79.7483 25.9886C79.7483 23.7858 77.9979 22 75.8387 22C73.6795 22 71.9291 23.7858 71.9291 25.9886C71.9291 28.1915 73.6795 29.9773 75.8387 29.9773Z" fill="url(#paint7_linear_1_11)"/>
</g>
<mask id="mask4_1_11" style="mask-type:alpha" maskUnits="userSpaceOnUse" x="4" y="42" width="8" height="9">
<path d="M7.90962 50.0037C10.0689 50.0037 11.8193 48.2179 11.8193 46.015C11.8193 43.8122 10.0689 42.0264 7.90962 42.0264C5.7504 42.0264 4 43.8122 4 46.015C4 48.2179 5.7504 50.0037 7.90962 50.0037Z" fill="url(#paint8_linear_1_11)"/>
</mask>
<g mask="url(#mask4_1_11)">
<path d="M7.90962 50.0037C10.0689 50.0037 11.8193 48.218 11.8193 46.0151C11.8193 43.8122 10.0689 42.0265 7.90962 42.0265C5.7504 42.0265 4 43.8122 4 46.0151C4 48.218 5.7504 50.0037 7.90962 50.0037Z" fill="url(#paint9_linear_1_11)"/>
</g>
<mask id="mask5_1_11" style="mask-type:alpha" maskUnits="userSpaceOnUse" x="26" y="42" width="9" height="9">
<path d="M30.5525 50.0038C32.7117 50.0038 34.4621 48.218 34.4621 46.0151C34.4621 43.8123 32.7117 42.0265 30.5525 42.0265C28.3932 42.0265 26.6428 43.8123 26.6428 46.0151C26.6428 48.218 28.3932 50.0038 30.5525 50.0038Z" fill="url(#paint10_linear_1_11)"/>
</mask>
<g mask="url(#mask5_1_11)">
<path d="M30.5528 50.0037C32.712 50.0037 34.4625 48.2179 34.4625 46.0151C34.4625 43.8122 32.712 42.0264 30.5528 42.0264C28.3936 42.0264 26.6432 43.8122 26.6432 46.0151C26.6432 48.2179 28.3936 50.0037 30.5528 50.0037Z" fill="url(#paint11_linear_1_11)"/>
</g>
<mask id="mask6_1_11" style="mask-type:alpha" maskUnits="userSpaceOnUse" x="0" y="0" width="100" height="100">
<path d="M53.1953 50.0038C55.3546 50.0038 57.105 48.218 57.105 46.0151C57.105 43.8123 55.3546 42.0265 53.1953 42.0265C51.0361 42.0265 49.2857 43.8123 49.2857 46.0151C49.2857 48.218 51.0361 50.0038 53.1953 50.0038Z" fill="url(#paint12_linear_1_11)"/>
</mask>
<g mask="url(#mask6_1_11)">
<path d="M53.196 50.0037C55.3552 50.0037 57.1056 48.2179 57.1056 46.0151C57.1056 43.8122 55.3552 42.0264 53.196 42.0264C51.0368 42.0264 49.2864 43.8122 49.2864 46.0151C49.2864 48.2179 51.0368 50.0037 53.196 50.0037Z" fill="url(#paint13_linear_1_11)"/>
</g>
<mask id="mask7_1_11" style="mask-type:alpha" maskUnits="userSpaceOnUse" x="71" y="42" width="9" height="9">
<path d="M75.8381 50.0038C77.9973 50.0038 79.7477 48.218 79.7477 46.0151C79.7477 43.8123 77.9973 42.0265 75.8381 42.0265C73.6789 42.0265 71.9285 43.8123 71.9285 46.0151C71.9285 48.218 73.6789 50.0038 75.8381 50.0038Z" fill="url(#paint14_linear_1_11)"/>
</mask>
<g mask="url(#mask7_1_11)">
<path d="M75.8387 50.0037C77.9979 50.0037 79.7483 48.2179 79.7483 46.0151C79.7483 43.8122 77.9979 42.0264 75.8387 42.0264C73.6795 42.0264 71.9291 43.8122 71.9291 46.0151C71.9291 48.2179 73.6795 50.0037 75.8387 50.0037Z" fill="url(#paint15_linear_1_11)"/>
</g>
<mask id="mask8_1_11" style="mask-type:alpha" maskUnits="userSpaceOnUse" x="4" y="62" width="8" height="8">
<path d="M7.90962 69.9887C10.0689 69.9887 11.8193 68.2029 11.8193 66C11.8193 63.7971 10.0689 62.0113 7.90962 62.0113C5.7504 62.0113 4 63.7971 4 66C4 68.2029 5.7504 69.9887 7.90962 69.9887Z" fill="url(#paint16_linear_1_11)"/>
</mask>
<g mask="url(#mask8_1_11)">
<path d="M7.90962 69.9888C10.0689 69.9888 11.8193 68.203 11.8193 66.0001C11.8193 63.7972 10.0689 62.0114 7.90962 62.0114C5.7504 62.0114 4 63.7972 4 66.0001C4 68.203 5.7504 69.9888 7.90962 69.9888Z" fill="url(#paint17_linear_1_11)"/>
</g>
<mask id="mask9_1_11" style="mask-type:alpha" maskUnits="userSpaceOnUse" x="26" y="62" width="9" height="8">
<path d="M30.5525 69.9889C32.7117 69.9889 34.4621 68.2032 34.4621 66.0003C34.4621 63.7974 32.7117 62.0116 30.5525 62.0116C28.3932 62.0116 26.6428 63.7974 26.6428 66.0003C26.6428 68.2032 28.3932 69.9889 30.5525 69.9889Z" fill="url(#paint18_linear_1_11)"/>
</mask>
<g mask="url(#mask9_1_11)">
<path d="M30.5528 69.9888C32.712 69.9888 34.4625 68.203 34.4625 66.0001C34.4625 63.7972 32.712 62.0114 30.5528 62.0114C28.3936 62.0114 26.6432 63.7972 26.6432 66.0001C26.6432 68.203 28.3936 69.9888 30.5528 69.9888Z" fill="url(#paint19_linear_1_11)"/>
</g>
<mask id="mask10_1_11" style="mask-type:alpha" maskUnits="userSpaceOnUse" x="49" y="62" width="9" height="8">
<path d="M53.1953 69.9889C55.3546 69.9889 57.105 68.2032 57.105 66.0003C57.105 63.7974 55.3546 62.0116 53.1953 62.0116C51.0361 62.0116 49.2857 63.7974 49.2857 66.0003C49.2857 68.2032 51.0361 69.9889 53.1953 69.9889Z" fill="url(#paint20_linear_1_11)"/>
</mask>
<g mask="url(#mask10_1_11)">
<path d="M53.196 69.9888C55.3552 69.9888 57.1056 68.203 57.1056 66.0001C57.1056 63.7972 55.3552 62.0114 53.196 62.0114C51.0368 62.0114 49.2864 63.7972 49.2864 66.0001C49.2864 68.203 51.0368 69.9888 53.196 69.9888Z" fill="url(#paint21_linear_1_11)"/>
</g>
<mask id="mask11_1_11" style="mask-type:alpha" maskUnits="userSpaceOnUse" x="71" y="62" width="9" height="8">
<path d="M75.8381 69.9889C77.9973 69.9889 79.7477 68.2032 79.7477 66.0003C79.7477 63.7974 77.9973 62.0116 75.8381 62.0116C73.6789 62.0116 71.9285 63.7974 71.9285 66.0003C71.9285 68.2032 73.6789 69.9889 75.8381 69.9889Z" fill="url(#paint22_linear_1_11)"/>
</mask>
<g mask="url(#mask11_1_11)">
<path d="M75.8387 69.9888C77.9979 69.9888 79.7483 68.203 79.7483 66.0001C79.7483 63.7972 77.9979 62.0114 75.8387 62.0114C73.6795 62.0114 71.9291 63.7972 71.9291 66.0001C71.9291 68.203 73.6795 69.9888 75.8387 69.9888Z" fill="url(#paint23_linear_1_11)"/>
</g>
<mask id="mask12_1_11" style="mask-type:alpha" maskUnits="userSpaceOnUse" x="4" y="82" width="8" height="9">
<path d="M7.90962 90.0154C10.0689 90.0154 11.8193 88.2296 11.8193 86.0267C11.8193 83.8239 10.0689 82.0381 7.90962 82.0381C5.7504 82.0381 4 83.8239 4 86.0267C4 88.2296 5.7504 90.0154 7.90962 90.0154Z" fill="url(#paint24_linear_1_11)"/>
</mask>
<g mask="url(#mask12_1_11)">
<path d="M7.90962 90.0152C10.0689 90.0152 11.8193 88.2294 11.8193 86.0265C11.8193 83.8236 10.0689 82.0378 7.90962 82.0378C5.7504 82.0378 4 83.8236 4 86.0265C4 88.2294 5.7504 90.0152 7.90962 90.0152Z" fill="url(#paint25_linear_1_11)"/>
</g>
<mask id="mask13_1_11" style="mask-type:alpha" maskUnits="userSpaceOnUse" x="26" y="82" width="9" height="9">
<path d="M30.5525 90.0154C32.7117 90.0154 34.4621 88.2296 34.4621 86.0267C34.4621 83.8239 32.7117 82.0381 30.5525 82.0381C28.3932 82.0381 26.6428 83.8239 26.6428 86.0267C26.6428 88.2296 28.3932 90.0154 30.5525 90.0154Z" fill="url(#paint26_linear_1_11)"/>
</mask>
<g mask="url(#mask13_1_11)">
<path d="M30.5528 90.0152C32.712 90.0152 34.4625 88.2294 34.4625 86.0265C34.4625 83.8236 32.712 82.0378 30.5528 82.0378C28.3936 82.0378 26.6432 83.8236 26.6432 86.0265C26.6432 88.2294 28.3936 90.0152 30.5528 90.0152Z" fill="url(#paint27_linear_1_11)"/>
</g>
<mask id="mask14_1_11" style="mask-type:alpha" maskUnits="userSpaceOnUse" x="49" y="82" width="9" height="9">
<path d="M53.1953 90.0154C55.3546 90.0154 57.105 88.2296 57.105 86.0267C57.105 83.8239 55.3546 82.0381 53.1953 82.0381C51.0361 82.0381 49.2857 83.8239 49.2857 86.0267C49.2857 88.2296 51.0361 90.0154 53.1953 90.0154Z" fill="url(#paint28_linear_1_11)"/>
</mask>
<g mask="url(#mask14_1_11)">
<path d="M53.196 90.0152C55.3552 90.0152 57.1056 88.2294 57.1056 86.0265C57.1056 83.8236 55.3552 82.0378 53.196 82.0378C51.0368 82.0378 49.2864 83.8236 49.2864 86.0265C49.2864 88.2294 51.0368 90.0152 53.196 90.0152Z" fill="url(#paint29_linear_1_11)"/>
</g>
<mask id="mask15_1_11" style="mask-type:alpha" maskUnits="userSpaceOnUse" x="71" y="82" width="9" height="9">
<path d="M75.8381 90.0154C77.9973 90.0154 79.7477 88.2296 79.7477 86.0267C79.7477 83.8239 77.9973 82.0381 75.8381 82.0381C73.6789 82.0381 71.9285 83.8239 71.9285 86.0267C71.9285 88.2296 73.6789 90.0154 75.8381 90.0154Z" fill="url(#paint30_linear_1_11)"/>
</mask>
<g mask="url(#mask15_1_11)">
<path d="M75.8387 90.0152C77.9979 90.0152 79.7483 88.2294 79.7483 86.0265C79.7483 83.8236 77.9979 82.0378 75.8387 82.0378C73.6795 82.0378 71.9291 83.8236 71.9291 86.0265C71.9291 88.2294 73.6795 90.0152 75.8387 90.0152Z" fill="url(#paint31_linear_1_11)"/>
</g>
</g>
<defs>
<linearGradient id="paint0_linear_1_11" x1="42.076" y1="114.471" x2="-13.486" y2="-23.7764" gradientUnits="userSpaceOnUse">
<stop stop-color="#FFA434"/>
<stop offset="1" stop-color="#FFA434"/>
</linearGradient>
<linearGradient id="paint1_linear_1_11" x1="42.076" y1="114.471" x2="-13.486" y2="-23.7764" gradientUnits="userSpaceOnUse">
<stop stop-color="#FFA434"/>
<stop offset="1" stop-color="#FFA434"/>
</linearGradient>
<linearGradient id="paint2_linear_1_11" x1="64.7188" y1="114.471" x2="9.15687" y2="-23.7764" gradientUnits="userSpaceOnUse">
<stop stop-color="#FFA434"/>
<stop offset="1" stop-color="#FFA434"/>
</linearGradient>
<linearGradient id="paint3_linear_1_11" x1="64.7192" y1="114.471" x2="9.15724" y2="-23.7764" gradientUnits="userSpaceOnUse">
<stop stop-color="#FFA434"/>
<stop offset="1" stop-color="#FFA434"/>
</linearGradient>
<linearGradient id="paint4_linear_1_11" x1="87.3617" y1="114.471" x2="31.7998" y2="-23.7764" gradientUnits="userSpaceOnUse">
<stop stop-color="#FFA434"/>
<stop offset="1" stop-color="#FFA434"/>
</linearGradient>
<linearGradient id="paint5_linear_1_11" x1="87.3624" y1="114.471" x2="31.8004" y2="-23.7764" gradientUnits="userSpaceOnUse">
<stop stop-color="#FFA434"/>
<stop offset="1" stop-color="#FFA434"/>
</linearGradient>
<linearGradient id="paint6_linear_1_11" x1="110.004" y1="114.471" x2="54.4425" y2="-23.7764" gradientUnits="userSpaceOnUse">
<stop stop-color="#FFA434"/>
<stop offset="1" stop-color="#FFA434"/>
</linearGradient>
<linearGradient id="paint7_linear_1_11" x1="110.005" y1="114.471" x2="54.4431" y2="-23.7764" gradientUnits="userSpaceOnUse">
<stop stop-color="#FFA434"/>
<stop offset="1" stop-color="#FFA434"/>
</linearGradient>
<linearGradient id="paint8_linear_1_11" x1="42.076" y1="134.496" x2="-13.4851" y2="-3.74992" gradientUnits="userSpaceOnUse">
<stop stop-color="#FFA434"/>
<stop offset="1" stop-color="#FFA434"/>
</linearGradient>
<linearGradient id="paint9_linear_1_11" x1="42.076" y1="134.496" x2="-13.4851" y2="-3.74986" gradientUnits="userSpaceOnUse">
<stop stop-color="#FFA434"/>
<stop offset="1" stop-color="#FFA434"/>
</linearGradient>
<linearGradient id="paint10_linear_1_11" x1="64.7188" y1="134.496" x2="9.15782" y2="-3.74987" gradientUnits="userSpaceOnUse">
<stop stop-color="#FFA434"/>
<stop offset="1" stop-color="#FFA434"/>
</linearGradient>
<linearGradient id="paint11_linear_1_11" x1="64.7192" y1="134.496" x2="9.15818" y2="-3.74994" gradientUnits="userSpaceOnUse">
<stop stop-color="#FFA434"/>
<stop offset="1" stop-color="#FFA434"/>
</linearGradient>
<linearGradient id="paint12_linear_1_11" x1="87.3617" y1="134.496" x2="31.8007" y2="-3.74987" gradientUnits="userSpaceOnUse">
<stop stop-color="#FFA434"/>
<stop offset="1" stop-color="#FFA434"/>
</linearGradient>
<linearGradient id="paint13_linear_1_11" x1="87.3624" y1="134.496" x2="31.8014" y2="-3.74994" gradientUnits="userSpaceOnUse">
<stop stop-color="#FFA434"/>
<stop offset="1" stop-color="#FFA434"/>
</linearGradient>
<linearGradient id="paint14_linear_1_11" x1="110.004" y1="134.496" x2="54.4435" y2="-3.74987" gradientUnits="userSpaceOnUse">
<stop stop-color="#FFA434"/>
<stop offset="1" stop-color="#FFA434"/>
</linearGradient>
<linearGradient id="paint15_linear_1_11" x1="110.005" y1="134.496" x2="54.4441" y2="-3.74994" gradientUnits="userSpaceOnUse">
<stop stop-color="#FFA434"/>
<stop offset="1" stop-color="#FFA434"/>
</linearGradient>
<linearGradient id="paint16_linear_1_11" x1="42.076" y1="154.482" x2="-13.486" y2="16.2349" gradientUnits="userSpaceOnUse">
<stop stop-color="#FFA434"/>
<stop offset="1" stop-color="#FFA434"/>
</linearGradient>
<linearGradient id="paint17_linear_1_11" x1="42.076" y1="154.482" x2="-13.486" y2="16.235" gradientUnits="userSpaceOnUse">
<stop stop-color="#FFA434"/>
<stop offset="1" stop-color="#FFA434"/>
</linearGradient>
<linearGradient id="paint18_linear_1_11" x1="64.7188" y1="154.482" x2="9.15687" y2="16.2352" gradientUnits="userSpaceOnUse">
<stop stop-color="#FFA434"/>
<stop offset="1" stop-color="#FFA434"/>
</linearGradient>
<linearGradient id="paint19_linear_1_11" x1="64.7192" y1="154.482" x2="9.15724" y2="16.235" gradientUnits="userSpaceOnUse">
<stop stop-color="#FFA434"/>
<stop offset="1" stop-color="#FFA434"/>
</linearGradient>
<linearGradient id="paint20_linear_1_11" x1="87.3617" y1="154.482" x2="31.7998" y2="16.2352" gradientUnits="userSpaceOnUse">
<stop stop-color="#FFA434"/>
<stop offset="1" stop-color="#FFA434"/>
</linearGradient>
<linearGradient id="paint21_linear_1_11" x1="87.3624" y1="154.482" x2="31.8004" y2="16.235" gradientUnits="userSpaceOnUse">
<stop stop-color="#FFA434"/>
<stop offset="1" stop-color="#FFA434"/>
</linearGradient>
<linearGradient id="paint22_linear_1_11" x1="110.004" y1="154.482" x2="54.4425" y2="16.2352" gradientUnits="userSpaceOnUse">
<stop stop-color="#FFA434"/>
<stop offset="1" stop-color="#FFA434"/>
</linearGradient>
<linearGradient id="paint23_linear_1_11" x1="110.005" y1="154.482" x2="54.4431" y2="16.235" gradientUnits="userSpaceOnUse">
<stop stop-color="#FFA434"/>
<stop offset="1" stop-color="#FFA434"/>
</linearGradient>
<linearGradient id="paint24_linear_1_11" x1="42.076" y1="174.509" x2="-13.486" y2="36.2617" gradientUnits="userSpaceOnUse">
<stop stop-color="#FFA434"/>
<stop offset="1" stop-color="#FFA434"/>
</linearGradient>
<linearGradient id="paint25_linear_1_11" x1="42.076" y1="174.509" x2="-13.486" y2="36.2615" gradientUnits="userSpaceOnUse">
<stop stop-color="#FFA434"/>
<stop offset="1" stop-color="#FFA434"/>
</linearGradient>
<linearGradient id="paint26_linear_1_11" x1="64.7188" y1="174.509" x2="9.15687" y2="36.2616" gradientUnits="userSpaceOnUse">
<stop stop-color="#FFA434"/>
<stop offset="1" stop-color="#FFA434"/>
</linearGradient>
<linearGradient id="paint27_linear_1_11" x1="64.7192" y1="174.509" x2="9.15724" y2="36.2614" gradientUnits="userSpaceOnUse">
<stop stop-color="#FFA434"/>
<stop offset="1" stop-color="#FFA434"/>
</linearGradient>
<linearGradient id="paint28_linear_1_11" x1="87.3617" y1="174.509" x2="31.7998" y2="36.2616" gradientUnits="userSpaceOnUse">
<stop stop-color="#FFA434"/>
<stop offset="1" stop-color="#FFA434"/>
</linearGradient>
<linearGradient id="paint29_linear_1_11" x1="87.3624" y1="174.509" x2="31.8004" y2="36.2614" gradientUnits="userSpaceOnUse">
<stop stop-color="#FFA434"/>
<stop offset="1" stop-color="#FFA434"/>
</linearGradient>
<linearGradient id="paint30_linear_1_11" x1="110.004" y1="174.509" x2="54.4425" y2="36.2616" gradientUnits="userSpaceOnUse">
<stop stop-color="#FFA434"/>
<stop offset="1" stop-color="#FFA434"/>
</linearGradient>
<linearGradient id="paint31_linear_1_11" x1="110.005" y1="174.509" x2="54.4431" y2="36.2614" gradientUnits="userSpaceOnUse">
<stop stop-color="#FFA434"/>
<stop offset="1" stop-color="#FFA434"/>
</linearGradient>
</defs>
</svg>
